<svg width="20" height="20" viewBox="0 0 20 20" fill="none" xmlns="http://www.w3.org/2000/svg">
<path fill-rule="evenodd" clip-rule="evenodd" d="M10.809 6.06226C10.809 5.27679 11.4457 4.64004 12.2312 4.64004C13.0167 4.64004 13.6534 5.27679 13.6534 6.06226C13.6534 6.84773 13.0167 7.48448 12.2312 7.48448C11.4457 7.48448 10.809 6.84773 10.809 6.06226ZM9.29327 6.7741L2.72003 6.77402C2.27821 6.77402 1.92004 6.41584 1.92004 5.97401C1.92005 5.53219 2.27823 5.17402 2.72005 5.17402L9.34157 5.1741C9.72092 3.93841 10.8711 3.04004 12.2312 3.04004C13.591 3.04004 14.741 3.93809 15.1206 5.17344L17.2978 5.17324C17.7396 5.1732 18.0978 5.53134 18.0978 5.97317C18.0979 6.415 17.7397 6.7732 17.2979 6.77324L15.1693 6.77344C14.8494 8.0994 13.6553 9.08448 12.2312 9.08448C10.8073 9.08448 9.61332 8.09973 9.29327 6.7741Z" fill="#252B5C"/>
<path fill-rule="evenodd" clip-rule="evenodd" d="M9.20901 13.8845C9.20901 13.0991 8.57226 12.4623 7.78679 12.4623C7.00132 12.4623 6.36457 13.0991 6.36457 13.8845C6.36457 14.67 7.00132 15.3067 7.78679 15.3067C8.57226 15.3067 9.20901 14.67 9.20901 13.8845ZM10.7247 14.5964L17.2979 14.5963C17.7397 14.5963 18.0979 14.2381 18.0979 13.7963C18.0979 13.3545 17.7397 12.9963 17.2979 12.9963L10.6764 12.9964C10.297 11.7607 9.14683 10.8623 7.78679 10.8623C6.42699 10.8623 5.27694 11.7604 4.89738 12.9957L2.72019 12.9955C2.27836 12.9955 1.92015 13.3536 1.92011 13.7954C1.92007 14.2373 2.27821 14.5955 2.72004 14.5955L4.84872 14.5957C5.16853 15.9217 6.36262 16.9067 7.78679 16.9067C9.21072 16.9067 10.4046 15.922 10.7247 14.5964Z" fill="#252B5C"/>
</svg>
